<svg enable-background="new 0 0 500 500" viewBox="0 0 500 500" xmlns="http://www.w3.org/2000/svg"><path d="m76.452 288.268h343.804c.956 0 1.674-.797 1.674-1.673v-210.794c0-.956-.717-1.673-1.674-1.673h-343.804c-.956 0-1.674.717-1.674 1.673v210.793c0 .877.718 1.674 1.674 1.674z" fill="#fff" stroke="#fff" stroke-width="10"/><path d="m423.603 295.919c-.319-.957-.717-1.833-1.594-1.833h-11.476-323.721-11.476c-.877 0-1.275.877-1.594 1.833l-37.695 131.655 212.626-.398 212.626.398z" fill="#fff" stroke="#fff" stroke-width="10"/><path d="m76.452 74.128h343.804c.956 0 1.674.717 1.674 1.673v210.793c0 .876-.717 1.673-1.674 1.673h-343.804c-.956 0-1.674-.797-1.674-1.673v-210.793c0-.956.718-1.673 1.674-1.673z" fill="#141414"/><path d="m75.336 294.085c-.877 0-1.275.877-1.594 1.833l-37.695 131.656 212.626-.398 212.626.398-37.696-131.655c-.319-.957-.717-1.833-1.594-1.833h-11.476-323.721-11.476z" fill="#141414"/><path d="m103.389 90.864h289.93c.797 0 1.355.638 1.355 1.434v177.72c0 .797-.558 1.435-1.355 1.435h-289.93c-.797 0-1.435-.638-1.435-1.435v-177.72c0-.796.638-1.434 1.435-1.434z" fill="#8ecdfc"/><path d="m206.116 378.244c-.159 0-.319.239-.398.478l-9.245 32.276 52.2-.079 52.12.079-9.245-32.276c0-.239-.159-.478-.319-.478h-2.869-79.376z" fill="#4c4c4c"/><path d="m120.045 90.864 274.629 153.891v-152.457c0-.796-.558-1.434-1.355-1.434z" fill="#a8f1e5"/></svg>